<?xml version="1.0" encoding="UTF-8" ?>
<!DOCTYPE svg PUBLIC "-//W3C//DTD SVG 1.1//EN" "http://www.w3.org/Graphics/SVG/1.1/DTD/svg11.dtd">
<svg width="812pt" height="608pt" viewBox="0 0 812 608" version="1.1" xmlns="http://www.w3.org/2000/svg">
<g id="#e31d1cff">
<path fill="#e31d1c" opacity="1.00" d=" M 0.00 0.00 L 0.62 0.00 C 2.31 1.44 3.94 2.94 5.69 4.30 C 94.10 70.52 182.39 136.89 270.83 203.08 C 315.87 237.10 361.24 270.71 406.22 304.83 C 361.09 338.84 315.78 372.62 270.63 406.62 C 193.05 464.70 115.56 522.90 38.02 581.04 C 26.18 590.06 14.05 598.71 2.41 608.00 L 0.00 608.00 L 0.00 0.00 Z" />
<path fill="#e31d1c" opacity="1.00" d=" M 503.41 211.45 C 514.62 208.10 526.49 206.24 538.17 207.78 C 542.66 208.39 547.10 209.68 551.02 212.01 C 533.86 222.59 518.19 236.21 507.38 253.39 C 498.34 267.51 493.10 284.18 493.35 301.00 C 493.28 319.27 499.66 337.14 509.65 352.29 C 520.29 368.86 535.11 382.28 551.06 393.62 C 534.32 396.91 516.95 394.25 500.84 389.20 C 481.20 382.90 462.75 371.26 450.75 354.23 C 441.15 340.79 436.29 324.36 435.52 307.95 C 434.49 287.85 438.93 267.06 450.28 250.22 C 462.59 231.44 482.14 218.10 503.41 211.45 Z" />
<path fill="#e31d1c" opacity="1.00" d=" M 564.88 256.48 C 576.34 266.27 586.87 277.13 598.14 287.15 C 608.25 283.80 618.07 279.63 628.15 276.20 C 625.05 286.53 621.57 296.76 618.22 307.02 C 627.48 317.15 638.18 325.88 647.28 336.15 C 634.26 333.87 621.50 330.17 608.44 328.07 C 606.37 339.71 604.08 351.31 601.97 362.95 C 601.67 364.42 601.49 366.00 600.47 367.18 C 594.91 352.93 589.23 338.72 583.46 324.55 C 570.28 320.18 557.05 315.96 543.87 311.62 C 554.25 305.81 565.42 301.44 576.01 295.97 C 572.47 282.76 568.17 269.75 564.88 256.48 Z" />
</g>
<g id="#272727ff">
<path fill="#272727" opacity="1.00" d=" M 0.62 0.00 L 812.00 0.00 L 812.00 202.88 C 635.67 202.86 459.33 202.88 283.00 202.87 C 278.94 202.87 274.88 202.82 270.83 203.08 C 182.39 136.89 94.10 70.52 5.69 4.30 C 3.94 2.94 2.31 1.44 0.62 0.00 Z" />
</g>
<g id="#f7fcffff">
<path fill="#f7fcff" opacity="1.00" d=" M 270.83 203.08 C 274.88 202.82 278.94 202.87 283.00 202.87 C 459.33 202.88 635.67 202.86 812.00 202.88 L 812.00 406.75 C 701.00 406.73 590.00 406.75 478.99 406.74 C 409.54 406.66 340.08 406.90 270.63 406.62 C 315.78 372.62 361.09 338.84 406.22 304.83 C 361.24 270.71 315.87 237.10 270.83 203.08 M 503.41 211.45 C 482.14 218.10 462.59 231.44 450.28 250.22 C 438.93 267.06 434.49 287.85 435.52 307.95 C 436.29 324.36 441.15 340.79 450.75 354.23 C 462.75 371.26 481.20 382.90 500.84 389.20 C 516.95 394.25 534.32 396.91 551.06 393.62 C 535.11 382.28 520.29 368.86 509.65 352.29 C 499.66 337.14 493.28 319.27 493.35 301.00 C 493.10 284.18 498.34 267.51 507.38 253.39 C 518.19 236.21 533.86 222.59 551.02 212.01 C 547.10 209.68 542.66 208.39 538.17 207.78 C 526.49 206.24 514.62 208.10 503.41 211.45 M 564.88 256.48 C 568.17 269.75 572.47 282.76 576.01 295.97 C 565.42 301.44 554.25 305.81 543.87 311.62 C 557.05 315.96 570.28 320.18 583.46 324.55 C 589.23 338.72 594.91 352.93 600.47 367.18 C 601.49 366.00 601.67 364.42 601.97 362.95 C 604.08 351.31 606.37 339.71 608.44 328.07 C 621.50 330.17 634.26 333.87 647.28 336.15 C 638.18 325.88 627.48 317.15 618.22 307.02 C 621.57 296.76 625.05 286.53 628.15 276.20 C 618.07 279.63 608.25 283.80 598.14 287.15 C 586.87 277.13 576.34 266.27 564.88 256.48 Z" />
</g>
<g id="#5eaa22ff">
<path fill="#5eaa22" opacity="1.00" d=" M 38.02 581.04 C 115.56 522.90 193.05 464.70 270.63 406.62 C 340.08 406.90 409.54 406.66 478.99 406.74 C 590.00 406.75 701.00 406.73 812.00 406.75 L 812.00 608.00 L 2.41 608.00 C 14.05 598.71 26.18 590.06 38.02 581.04 Z" />
</g>
</svg>
